<svg width="35" height="35" viewBox="0 0 318 312" fill="none" xmlns="http://www.w3.org/2000/svg">
<path d="M251.75 52H66.25C55.7076 52 45.5971 56.1089 38.1425 63.4228C30.6879 70.7368 26.5 80.6566 26.5 91V221C26.5 231.343 30.6879 241.263 38.1425 248.577C45.5971 255.891 55.7076 260 66.25 260H251.75C262.292 260 272.403 255.891 279.857 248.577C287.312 241.263 291.5 231.343 291.5 221V91C291.5 80.6566 287.312 70.7368 279.857 63.4228C272.403 56.1089 262.292 52 251.75 52ZM251.75 78L165.625 136.11C163.611 137.251 161.326 137.852 159 137.852C156.674 137.852 154.389 137.251 152.375 136.11L66.25 78H251.75Z" fill="#A7E2DB"/>
</svg>
