<svg width="35" height="35" viewBox="0 0 84 74" fill="none" xmlns="http://www.w3.org/2000/svg">
<path d="M60.69 16.835C59.8593 16.835 59.0473 17.052 58.3566 17.4586C57.6659 17.8651 57.1276 18.443 56.8097 19.1191C56.4918 19.7951 56.4086 20.5391 56.5707 21.2568C56.7328 21.9746 57.1328 22.6338 57.7202 23.1513C58.3075 23.6687 59.0559 24.0211 59.8706 24.1639C60.6853 24.3067 61.5298 24.2334 62.2973 23.9533C63.0647 23.6733 63.7207 23.1991 64.1822 22.5906C64.6437 21.9821 64.89 21.2668 64.89 20.535C64.89 19.5537 64.4475 18.6126 63.6598 17.9187C62.8722 17.2248 61.8039 16.835 60.69 16.835ZM76.79 24.2967C76.7219 21.7384 76.178 19.2073 75.18 16.8042C74.2901 14.748 72.9049 12.8861 71.12 11.3467C69.3869 9.76622 67.2685 8.5537 64.925 7.80082C62.2043 6.89482 59.328 6.40472 56.42 6.35166C52.71 6.16666 51.52 6.16666 42 6.16666C32.48 6.16666 31.29 6.16666 27.58 6.35166C24.672 6.40472 21.7957 6.89482 19.075 7.80082C16.7359 8.56132 14.6193 9.7728 12.88 11.3467C11.086 12.8735 9.70962 14.7397 8.855 16.8042C7.82656 19.201 7.27023 21.7349 7.21 24.2967C7 27.565 7 28.6133 7 37C7 45.3867 7 46.435 7.21 49.7033C7.27023 52.2651 7.82656 54.799 8.855 57.1958C9.70962 59.2603 11.086 61.1265 12.88 62.6533C14.6193 64.2272 16.7359 65.4387 19.075 66.1992C21.7957 67.1052 24.672 67.5953 27.58 67.6483C31.29 67.8333 32.48 67.8333 42 67.8333C51.52 67.8333 52.71 67.8333 56.42 67.6483C59.328 67.5953 62.2043 67.1052 64.925 66.1992C67.2685 65.4463 69.3869 64.2338 71.12 62.6533C72.9128 61.1196 74.2992 59.2561 75.18 57.1958C76.178 54.7927 76.7219 52.2616 76.79 49.7033C76.79 46.435 77 45.3867 77 37C77 28.6133 77 27.565 76.79 24.2967ZM70.49 49.3333C70.4645 51.2905 70.0621 53.2297 69.3 55.0683C68.7412 56.4102 67.8436 57.6226 66.675 58.6142C65.5398 59.6332 64.1663 60.4223 62.65 60.9267C60.563 61.5981 58.3617 61.9525 56.14 61.975C52.64 62.1292 51.345 62.16 42.14 62.16C32.935 62.16 31.64 62.16 28.14 61.975C25.8331 62.013 23.5361 61.7001 21.35 61.05C19.9002 60.5199 18.5897 59.7327 17.5 58.7375C16.3383 57.747 15.452 56.5335 14.91 55.1917C14.0555 53.3267 13.5816 51.3435 13.51 49.3333C13.51 46.25 13.3 45.1092 13.3 37C13.3 28.8908 13.3 27.75 13.51 24.6667C13.5257 22.6657 13.9403 20.6828 14.735 18.8083C15.3512 17.5069 16.2969 16.3468 17.5 15.4167C18.5633 14.3565 19.8775 13.5145 21.35 12.95C23.4834 12.2718 25.732 11.9173 28 11.9017C31.5 11.9017 32.795 11.7167 42 11.7167C51.205 11.7167 52.5 11.7167 56 11.9017C58.2217 11.9241 60.423 12.2786 62.51 12.95C64.1005 13.47 65.528 14.3154 66.675 15.4167C67.822 16.3638 68.7182 17.5217 69.3 18.8083C70.0779 20.6859 70.4805 22.668 70.49 24.6667C70.665 27.75 70.7 28.8908 70.7 37C70.7 45.1092 70.665 46.25 70.49 49.3333ZM42 21.1825C38.4503 21.1886 34.9824 22.1214 32.0343 23.8632C29.0862 25.6049 26.7903 28.0774 25.4367 30.9682C24.0831 33.859 23.7325 37.0384 24.4293 40.1047C25.126 43.1709 26.8388 45.9865 29.3513 48.1955C31.8637 50.4045 35.063 51.908 38.545 52.5158C42.027 53.1236 45.6353 52.8086 48.9141 51.6105C52.1929 50.4124 54.9951 48.385 56.9664 45.7845C58.9378 43.184 59.99 40.1271 59.99 37C59.9946 34.9191 59.5322 32.8579 58.6293 30.9349C57.7265 29.012 56.401 27.2653 54.729 25.7953C53.0571 24.3253 51.0718 23.161 48.8873 22.3694C46.7028 21.5777 44.3621 21.1744 42 21.1825ZM42 47.2675C39.6949 47.2675 37.4415 46.6653 35.5248 45.5371C33.6082 44.4089 32.1143 42.8053 31.2322 40.9292C30.35 39.0531 30.1192 36.9886 30.5689 34.9969C31.0187 33.0052 32.1287 31.1757 33.7587 29.7398C35.3887 28.3038 37.4654 27.326 39.7262 26.9298C41.9871 26.5336 44.3305 26.7369 46.4602 27.5141C48.5898 28.2912 50.4101 29.6072 51.6908 31.2957C52.9714 32.9842 53.655 34.9693 53.655 37C53.655 38.3483 53.3535 39.6835 52.7678 40.9292C52.1821 42.1749 51.3236 43.3068 50.2413 44.2602C49.1591 45.2136 47.8742 45.9699 46.4602 46.4859C45.0461 47.0019 43.5306 47.2675 42 47.2675Z" fill="#A7E2DB"/>
</svg>
