<svg width="35" height="35" viewBox="0 0 353 346" fill="none" xmlns="http://www.w3.org/2000/svg">
<path d="M222.832 121.099C211.559 121.061 200.389 123.202 189.961 127.4C179.533 131.598 170.051 137.77 162.06 145.563C154.068 153.357 147.722 162.618 143.386 172.817C139.049 183.017 136.807 193.954 136.788 205.004V289.774C136.788 293.215 138.183 296.516 140.665 298.949C143.148 301.382 146.515 302.749 150.026 302.749H180.913C184.424 302.749 187.791 301.382 190.274 298.949C192.756 296.516 194.151 293.215 194.151 289.774V205.004C194.148 201.074 194.99 197.188 196.622 193.598C198.254 190.009 200.64 186.796 203.624 184.171C206.607 181.546 210.122 179.567 213.939 178.362C217.755 177.157 221.788 176.755 225.774 177.18C232.922 178.062 239.491 181.486 244.236 186.8C248.98 192.115 251.57 198.952 251.513 206.013V289.774C251.513 293.215 252.908 296.516 255.39 298.949C257.873 301.382 261.24 302.749 264.751 302.749H295.638C299.149 302.749 302.516 301.382 304.999 298.949C307.481 296.516 308.876 293.215 308.876 289.774V205.004C308.856 193.954 306.614 183.017 302.278 172.817C297.942 162.618 291.596 153.357 283.604 145.563C275.612 137.77 266.131 131.598 255.703 127.4C245.275 123.202 234.105 121.061 222.832 121.099Z" fill="#A7E2DB"/>
<path d="M97.075 134.076H57.3625C50.0516 134.076 44.125 139.885 44.125 147.051V289.776C44.125 296.942 50.0516 302.751 57.3625 302.751H97.075C104.386 302.751 110.312 296.942 110.312 289.776V147.051C110.312 139.885 104.386 134.076 97.075 134.076Z" fill="#A7E2DB"/>
<path d="M77.2188 108.125C95.4959 108.125 110.312 93.6022 110.312 75.6875C110.312 57.7728 95.4959 43.25 77.2188 43.25C58.9416 43.25 44.125 57.7728 44.125 75.6875C44.125 93.6022 58.9416 108.125 77.2188 108.125Z" fill="#A7E2DB"/>
</svg>
