<svg width="70" height="74" viewBox="0 0 70 74" fill="none" xmlns="http://www.w3.org/2000/svg">
<path d="M25.2038 34.41V50.5975C25.2038 51.5175 24.828 52.3998 24.1592 53.0503C23.4903 53.7008 22.5831 54.0663 21.6372 54.0663C20.6913 54.0663 19.7841 53.7008 19.1153 53.0503C18.4464 52.3998 18.0706 51.5175 18.0706 50.5975V34.41C18.0706 33.49 18.4464 32.6077 19.1153 31.9572C19.7841 31.3067 20.6913 30.9413 21.6372 30.9413C22.5831 30.9413 23.4903 31.3067 24.1592 31.9572C24.828 32.6077 25.2038 33.49 25.2038 34.41ZM33.5258 54.0663C34.4717 54.0663 35.3789 53.7008 36.0477 53.0503C36.7166 52.3998 37.0924 51.5175 37.0924 50.5975V42.5038C37.0924 41.2771 37.5934 40.1007 38.4852 39.2334C39.377 38.366 40.5866 37.8788 41.8478 37.8788C43.109 37.8788 44.3186 38.366 45.2104 39.2334C46.1022 40.1007 46.6032 41.2771 46.6032 42.5038V50.5975C46.6032 51.5175 46.979 52.3998 47.6479 53.0503C48.3167 53.7008 49.2239 54.0663 50.1698 54.0663C51.1157 54.0663 52.0229 53.7008 52.6918 53.0503C53.3606 52.3998 53.7364 51.5175 53.7364 50.5975V42.5038C53.7358 40.5136 53.2069 38.5573 52.2011 36.8241C51.1953 35.0909 49.7466 33.6396 47.995 32.6105C46.2435 31.5814 44.2486 31.0095 42.2032 30.95C40.1578 30.8905 38.1312 31.3455 36.3196 32.2709C35.8604 31.7081 35.2328 31.2978 34.5236 31.0968C33.8143 30.8958 33.0584 30.914 32.3602 31.1488C31.662 31.3836 31.056 31.8235 30.6259 32.4077C30.1958 32.9918 29.9628 33.6915 29.9592 34.41V50.5975C29.9592 51.5175 30.335 52.3998 31.0038 53.0503C31.6727 53.7008 32.5799 54.0663 33.5258 54.0663ZM65.625 12.4413V61.0038C65.6172 62.5347 64.9884 64.0008 63.8753 65.0833C62.7622 66.1659 61.2548 66.7774 59.6807 66.785H9.74862C8.1745 66.7774 6.66708 66.1659 5.554 65.0833C4.44091 64.0008 3.81213 62.5347 3.80432 61.0038V12.4413C3.81213 10.9103 4.44091 9.44424 5.554 8.36169C6.66708 7.27914 8.1745 6.6676 9.74862 6.66H59.6807C61.2548 6.6676 62.7622 7.27914 63.8753 8.36169C64.9884 9.44424 65.6172 10.9103 65.625 12.4413ZM58.4918 13.5975H10.9375V59.8475H58.4918V13.5975ZM21.6372 27.4725C22.5777 27.4725 23.4972 27.2013 24.2792 26.6931C25.0612 26.1848 25.6707 25.4625 26.0307 24.6174C26.3906 23.7723 26.4848 22.8424 26.3013 21.9452C26.1178 21.048 25.6649 20.224 24.9998 19.5771C24.3347 18.9303 23.4874 18.4898 22.5649 18.3114C21.6425 18.1329 20.6863 18.2245 19.8174 18.5746C18.9484 18.9246 18.2057 19.5174 17.6832 20.278C17.1607 21.0386 16.8818 21.9328 16.8818 22.8475C16.8818 24.0741 17.3828 25.2505 18.2746 26.1179C19.1664 26.9852 20.376 27.4725 21.6372 27.4725Z" fill="#A7E2DB"/>
</svg>
