<svg width="35" height="35" viewBox="0 0 164 164" fill="none" xmlns="http://www.w3.org/2000/svg">
<path d="M118.675 150.049C90.8295 150.013 64.1346 138.935 44.4446 119.245C24.7546 99.5555 13.6769 72.8605 13.6408 45.0147C13.6408 36.6939 16.9463 28.7138 22.8301 22.83C28.7138 16.9463 36.6939 13.6408 45.0148 13.6408C46.7768 13.6274 48.5358 13.7873 50.2665 14.1182C51.9396 14.3658 53.5844 14.777 55.1772 15.3459C56.2975 15.739 57.2957 16.4176 58.0732 17.3148C58.8508 18.2119 59.3806 19.2965 59.6105 20.4612L68.9545 61.3838C69.2063 62.4946 69.176 63.6507 68.8662 64.7468C68.5565 65.8429 67.9772 66.8439 67.1812 67.6585C66.2945 68.6134 66.2263 68.6816 57.8372 73.0467C64.5553 87.7846 76.3423 99.6201 91.0526 106.399C95.4859 97.9412 95.5541 97.873 96.509 96.9864C97.3236 96.1904 98.3247 95.611 99.4207 95.3013C100.517 94.9915 101.673 94.9612 102.784 95.2131L143.706 104.557C144.834 104.819 145.876 105.363 146.735 106.138C147.594 106.914 148.242 107.895 148.617 108.99C149.193 110.609 149.626 112.275 149.913 113.969C150.187 115.683 150.324 117.417 150.322 119.153C150.196 127.438 146.798 135.337 140.869 141.126C134.94 146.914 126.961 150.122 118.675 150.049Z" fill="#A7E2DB"/>
</svg>
