<svg width="72" height="74" viewBox="0 0 72 74" fill="none" xmlns="http://www.w3.org/2000/svg">
<path d="M6 37C6 54.0292 19.431 67.8333 36 67.8333C52.569 67.8333 66 54.0292 66 37C66 19.9707 52.569 6.16666 36 6.16666C19.431 6.16666 6 19.9707 6 37Z" stroke="#ACBDC5" stroke-width="6.25" stroke-linecap="round" stroke-linejoin="round"/>
<path d="M39 6.32083C39 6.32083 48 18.5 48 37C48 55.5 39 67.6792 39 67.6792M33 67.6792C33 67.6792 24 55.5 24 37C24 18.5 33 6.32083 33 6.32083M7.89001 47.7917H64.11M7.89001 26.2083H64.11" stroke="#ACBDC5" stroke-width="6.25" stroke-linecap="round" stroke-linejoin="round"/>
</svg>
