<svg width="35" height="35" viewBox="0 0 84 73" fill="none" xmlns="http://www.w3.org/2000/svg">
<g clip-path="url(#clip0_6_57)">
<path d="M27.7927 57.311L30.5378 58.6505C35.1672 60.9054 40.4325 62.0892 45.7917 62.08C51.7911 62.08 57.6557 60.5942 62.644 57.8105C67.6323 55.0269 71.5202 51.0704 73.8161 46.4413C76.1119 41.8122 76.7126 36.7185 75.5422 31.8044C74.3718 26.8902 71.4828 22.3762 67.2406 18.8333C62.9984 15.2904 57.5935 12.8776 51.7095 11.9001C45.8254 10.9226 39.7263 11.4243 34.1837 13.3417C28.641 15.2591 23.9035 18.5062 20.5705 22.6722C17.2374 26.8383 15.4584 31.7362 15.4584 36.7467C15.4473 41.2239 16.8661 45.6226 19.5686 49.4893L21.1686 51.782L18.6927 59.3852L27.7927 57.311ZM7.89022 68.4133L13.0166 52.6813C9.6387 47.8454 7.86404 42.3453 7.87505 36.7467C7.87505 19.2572 24.8503 5.07999 45.7917 5.07999C66.7331 5.07999 83.7084 19.2572 83.7084 36.7467C83.7084 54.2361 66.7331 68.4133 45.7917 68.4133C39.091 68.4223 32.5082 66.9414 26.7196 64.1225L7.89022 68.4133ZM32.1076 21.8887C32.6157 21.857 33.1275 21.857 33.6356 21.876C33.8404 21.8887 34.0451 21.9077 34.2499 21.9267C34.8528 21.9837 35.5163 22.2908 35.74 22.7152C36.8699 24.8558 37.9695 27.0123 39.0312 29.1752C39.2663 29.6565 39.126 30.274 38.6785 30.8757C38.3708 31.2825 38.038 31.6757 37.6813 32.0536C37.2529 32.5128 36.3315 33.3552 36.3315 33.3552C36.3315 33.3552 35.9561 33.7288 36.1002 34.1943C36.1533 34.3717 36.3277 34.6282 36.487 34.8435L36.7107 35.1443C37.6813 36.4965 38.9857 37.8677 40.5782 39.1597C41.0332 39.527 41.4768 39.9038 41.9545 40.2553C43.729 41.5632 45.7386 42.6303 47.9075 43.422L47.9264 43.4283C48.2487 43.5455 48.4118 43.6088 48.8819 43.7767C49.117 43.859 49.3597 43.9318 49.6061 43.9857C49.8608 44.0398 50.129 44.0296 50.3768 43.9563C50.6245 43.883 50.8406 43.75 50.9977 43.574C53.7428 40.7968 53.9931 40.6163 54.0158 40.6163V40.6227C54.2066 40.4741 54.4331 40.3613 54.6803 40.292C54.9275 40.2226 55.1897 40.1982 55.4491 40.2205C55.6766 40.2332 55.9079 40.268 56.1202 40.3472C58.1336 41.1167 61.4286 42.3168 61.4286 42.3168L63.6353 43.1433C64.0069 43.2922 64.3443 43.6437 64.3557 43.9825C64.3709 44.1947 64.3936 44.5367 64.3064 45.1637C64.1851 45.9838 63.8893 46.9687 63.5936 47.4848C63.391 47.8371 63.1222 48.1599 62.7973 48.4412C62.4147 48.7766 61.9959 49.0819 61.5461 49.3531C61.3905 49.4509 61.2325 49.5459 61.0721 49.6381C60.6005 49.888 60.116 50.1205 59.6199 50.3348C58.6437 50.7679 57.5655 51.0165 56.4615 51.0632C55.76 51.0948 55.0586 51.1391 54.3533 51.1075C54.323 51.1075 52.1996 50.832 52.1996 50.832C46.8088 49.6478 41.8233 47.4293 37.6396 44.353C36.7827 43.7228 35.9903 43.0452 35.1788 42.3707C31.8043 39.5682 29.2563 36.544 27.7093 33.6877C26.9174 32.2857 26.4897 30.7598 26.4542 29.21C26.4386 27.2873 27.1911 25.4153 28.5927 23.89C28.8695 23.5923 29.1311 23.282 29.5823 22.9242C30.0639 22.5442 30.3672 22.3415 30.6971 22.2022C31.1357 22.0186 31.6142 21.9109 32.1038 21.8855L32.1076 21.8887Z" fill="#A7E2DB"/>
</g>
<defs>
<clipPath id="clip0_6_57">
<rect width="84" height="74" fill="white" transform="translate(0 -1)"/>
</clipPath>
</defs>
</svg>
