<svg width="35" height="35" viewBox="0 0 99 77" fill="none" xmlns="http://www.w3.org/2000/svg">
<g filter="url(#filter0_d_6_60)">
<path d="M49.5 68C40.185 68 23.58 67.1 16.695 65.3C13.86 64.4 11.835 62.15 11.025 59C9.81 54.05 9 43.7 9 36.5C9 29.3 9.81 18.95 11.025 14C11.835 10.85 13.86 8.6 16.695 7.7C23.58 5.9 40.185 5 49.5 5C58.815 5 75.42 5.9 82.305 7.7C85.14 8.6 87.165 10.85 87.975 14C89.19 18.95 90 29.3 90 36.5C90 43.7 89.19 54.05 87.975 59C87.165 62.15 85.14 64.4 82.305 65.3C75.42 67.1 58.815 68 49.5 68V68Z" stroke="#A7E2DB" stroke-width="8.33333" stroke-linecap="round" stroke-linejoin="round"/>
<path d="M41.4001 50L61.6501 36.5L41.4001 23V50Z" stroke="#A7E2DB" stroke-width="8.33333" stroke-linecap="round" stroke-linejoin="round"/>
</g>
<defs>
<filter id="filter0_d_6_60" x="0.833313" y="0.833344" width="97.3334" height="79.3333" filterUnits="userSpaceOnUse" color-interpolation-filters="sRGB">
<feFlood flood-opacity="0" result="BackgroundImageFix"/>
<feColorMatrix in="SourceAlpha" type="matrix" values="0 0 0 0 0 0 0 0 0 0 0 0 0 0 0 0 0 0 127 0" result="hardAlpha"/>
<feOffset dy="4"/>
<feGaussianBlur stdDeviation="2"/>
<feComposite in2="hardAlpha" operator="out"/>
<feColorMatrix type="matrix" values="0 0 0 0 0 0 0 0 0 0 0 0 0 0 0 0 0 0 0.25 0"/>
<feBlend mode="normal" in2="BackgroundImageFix" result="effect1_dropShadow_6_60"/>
<feBlend mode="normal" in="SourceGraphic" in2="effect1_dropShadow_6_60" result="shape"/>
</filter>
</defs>
</svg>
